PathFileType	4	(X/Y/Z)	/Users/itak/Documents/Research/Walk-IL/dataset/trc/00400_00012.trc
DataRate	CameraRate	NumFrames	NumMarkers	Units	OrigDataRate	OrigDataStartFrame	OrigNumFrames
100.000000	100.000000	4	53	mm	100.000000	405	649
Frame#	Time	RPSI			LPSI			L3			STRN			T10			C7			CLAV			RBAK			LBAK			LSHO			LUPA			LAEL			LAOL			LWTS			LWPS			LFRA			LIFD			LHPS			LHTS			RSHO			RUPA			RAEL			RAOL			RWTS			RWPS			RFRA			RIFD			RHTS			RHPS			RBHD			LFHD			RFHD			LBHD			LHIP			RHIP			RASI			LASI			LKNE			LTHI			LANK			LTIP			LTOE			LMT1			LMT5			LHEE			RKNE			RTHI			RANK			RTIP			RTOE			RMT1			RMT5			RHEE			
		X1	Y1	Z1	X2	Y2	Z2	X3	Y3	Z3	X4	Y4	Z4	X5	Y5	Z5	X6	Y6	Z6	X7	Y7	Z7	X8	Y8	Z8	X9	Y9	Z9	X10	Y10	Z10	X11	Y11	Z11	X12	Y12	Z12	X13	Y13	Z13	X14	Y14	Z14	X15	Y15	Z15	X16	Y16	Z16	X17	Y17	Z17	X18	Y18	Z18	X19	Y19	Z19	X20	Y20	Z20	X21	Y21	Z21	X22	Y22	Z22	X23	Y23	Z23	X24	Y24	Z24	X25	Y25	Z25	X26	Y26	Z26	X27	Y27	Z27	X28	Y28	Z28	X29	Y29	Z29	X30	Y30	Z30	X31	Y31	Z31	X32	Y32	Z32	X33	Y33	Z33	X34	Y34	Z34	X35	Y35	Z35	X36	Y36	Z36	X37	Y37	Z37	X38	Y38	Z38	X39	Y39	Z39	X40	Y40	Z40	X41	Y41	Z41	X42	Y42	Z42	X43	Y43	Z43	X44	Y44	Z44	X45	Y45	Z45	X46	Y46	Z46	X47	Y47	Z47	X48	Y48	Z48	X49	Y49	Z49	X50	Y50	Z50	X51	Y51	Z51	X52	Y52	Z52	X53	Y53	Z53	

406	4.05	269.8423767089844	934.03759765625	-783.9949951171875	297.1155700683594	927.0601806640625	-655.367431640625	289.7533874511719	1016.944091796875	-717.4998779296875	56.13680648803711	1172.090576171875	-685.0858764648438	302.8227233886719	1119.645629882812	-705.1097412109375	263.2730407714844	1367.090087890625	-680.327880859375	111.980224609375	1289.637084960938	-684.122802734375	313.7815551757812	1226.650634765625	-744.8087768554688	284.716552734375	1329.7451171875	-581.0043334960938	200.9260864257812	1347.031127929688	-525.7510986328125	240.5976104736328	1228.283569335938	-464.1043701171875	239.4564056396484	1037.867309570312	-443.7020263671875	276.2894592285156	1006.770690917969	-515.4204711914062	38.40654373168945	972.669677734375	-442.0160217285156	72.09951782226562	923.3116455078125	-383.9232177734375	181.6090850830078	977.9441528320312	-419.9451599121094	-110.4489440917969	874.1929321289062	-401.6282958984375	-7.158019065856934	886.306640625	-373.9522094726562	-43.54437255859375	932.3194580078125	-400.5498962402344	212.8780670166016	1349.293701171875	-834.7579345703125	243.1932525634766	1292.201782226562	-884.6670532226562	324.4966125488281	1045.333129882812	-909.012451171875	300.1779479980469	1031.723754882812	-818.5098266601562	279.3764343261719	800.6121215820312	-946.2703247070312	347.11669921875	814.9022827148438	-975.0613403320312	332.3429870605469	981.7365112304688	-936.8485107421875	354.7254333496094	641.0169067382812	-942.1953125	318.0716247558594	699.9330444335938	-966.8286743164062	379.6759338378906	733.77685546875	-973.6710815429688	188.1525115966797	1557.381713867188	-768.0460815429688	118.7040786743164	1552.153564453125	-580.7654418945312	74.82942199707031	1568.455200195312	-695.6419677734375	260.8762817382812	1535.303100585938	-625.3480224609375	231.0396728515625	914.8241577148438	-527.3209228515625	163.1648559570312	922.4701538085938	-879.2376708984375	45.96022796630859	941.6561279296875	-798.394287109375	110.4440689086914	918.143310546875	-541.4510498046875	199.3614959716797	427.0975646972656	-611.5914916992188	198.3266296386719	568.50830078125	-574.0601196289062	431.0616455078125	46.58916473388672	-680.3695068359375	314.3133850097656	217.747802734375	-639.3300170898438	231.5748901367188	35.97532272338867	-782.71044921875	317.58544921875	39.32319641113281	-795.671142578125	305.5791625976562	39.76008987426758	-691.7659301757812	479.7882690429688	60.2569465637207	-729.2144165039062	-60.31641006469727	482.4985046386719	-857.7866821289062	22.61874389648438	728.7492065429688	-869.8951416015625	-193.5401916503906	64.89946746826172	-854.7468872070312	-116.4942626953125	370.8919372558594	-848.1016235351562	-324.8507385253906	122.7223358154297	-742.253662109375	-252.446044921875	94.53530120849609	-733.75146484375	-275.5940246582031	78.76890563964844	-832.398681640625	-117.8164367675781	25.80106353759766	-823.8038330078125	
407	4.06	257.5951232910156	932.983154296875	-785.8533935546875	286.1144104003906	925.531005859375	-657.5161743164062	278.1453552246094	1015.540588378906	-719.2279052734375	45.46362686157227	1170.701293945312	-684.4190063476562	291.7432861328125	1118.172241210938	-706.8734130859375	252.8038330078125	1365.681884765625	-681.8173217773438	101.0814819335938	1288.2138671875	-684.0913696289062	302.5581665039062	1225.150634765625	-746.712158203125	275.1568908691406	1328.21875	-582.6841430664062	191.9746246337891	1345.4580078125	-526.5514526367188	232.3568420410156	1226.566040039062	-465.6083679199219	231.6329345703125	1035.890625	-445.8150024414062	267.736572265625	1005.278076171875	-518.106201171875	30.70111274719238	969.540771484375	-442.7366027832031	65.34077453613281	920.2299194335938	-384.9724426269531	173.9953155517578	975.5642700195312	-421.8816223144531	-116.990837097168	870.4534912109375	-400.7967834472656	-13.95836067199707	882.882080078125	-374.530517578125	-50.90143966674805	928.8875122070312	-400.6044006347656	200.8091583251953	1347.803833007812	-835.8392944335938	230.4967193603516	1290.53662109375	-886.0349731445312	311.5552368164062	1043.562255859375	-910.6190185546875	288.2087707519531	1030.196166992188	-819.7802124023438	267.3767395019531	798.5191040039062	-946.1561889648438	334.05712890625	813.0248413085938	-975.9459228515625	319.1752014160156	979.8590698242188	-938.3097534179688	343.0216674804688	639.39306640625	-942.38427734375	305.7166748046875	698.012451171875	-966.7155151367188	366.9140319824219	731.9537963867188	-974.6437377929688	177.4515380859375	1556.11279296875	-768.6817016601562	109.6997680664062	1550.88916015625	-580.755859375	64.69310760498047	1567.436889648438	-695.2421264648438	251.2723236083984	1533.654174804688	-626.7398681640625	221.3872222900391	912.8604736328125	-528.8722534179688	150.0328063964844	921.9293212890625	-880.1090698242188	33.70877456665039	940.7477416992188	-797.8616333007812	100.6054763793945	916.0172729492188	-541.6231689453125	191.1746520996094	425.5362243652344	-612.7882690429688	189.8190307617188	566.8194580078125	-575.5704956054688	430.7302856445312	49.36405181884766	-681.5205688476562	310.4342651367188	218.6771545410156	-640.2837524414062	231.1658477783203	35.78701019287109	-782.5969848632812	316.7275390625	40.17710113525391	-795.8760375976562	305.3823547363281	40.07371139526367	-692.0936279296875	479.4237670898438	63.55614471435547	-730.423095703125	-73.47854614257812	481.76708984375	-854.402587890625	8.699390411376953	728.1477661132812	-868.5642700195312	-201.6787719726562	63.19720077514648	-851.0896606445312	-128.5719146728516	369.4761962890625	-843.7816162109375	-331.4278869628906	117.5937728881836	-735.15185546875	-258.3071899414062	90.49907684326172	-728.3815307617188	-283.1881103515625	75.73258972167969	-826.8836059570312	-124.8021087646484	25.27960777282715	-821.9404907226562	
408	4.07	245.2304229736328	932.2609252929688	-787.6326904296875	274.9031677246094	924.256103515625	-659.5599365234375	266.3255615234375	1014.355651855469	-720.8441162109375	34.71975708007812	1169.599365234375	-683.6806030273438	280.529296875	1116.935546875	-708.5752563476562	242.3044281005859	1364.522094726562	-683.2530517578125	90.18649291992188	1287.066772460938	-683.9816284179688	291.2247314453125	1223.885009765625	-748.567138671875	265.5460205078125	1326.905517578125	-584.2982177734375	183.0061187744141	1344.130493164062	-527.3145751953125	224.0892486572266	1225.1357421875	-467.0733337402344	223.7982177734375	1034.16552734375	-447.783447265625	259.2370910644531	1004.103942871094	-520.6229858398438	23.11257362365723	965.97802734375	-443.5017700195312	58.79037857055664	916.852783203125	-386.0428161621094	166.4323120117188	973.248291015625	-423.7120971679688	-123.1160659790039	865.5848999023438	-400.3034973144531	-20.27785873413086	878.8287963867188	-375.177490234375	-57.96488952636719	924.6477661132812	-400.7960510253906	188.660888671875	1346.58203125	-836.8470458984375	217.6548156738281	1289.111938476562	-887.3723754882812	298.1423950195312	1041.925048828125	-912.3466796875	275.9538269042969	1028.84765625	-821.1454467773438	254.7365570068359	796.5697631835938	-946.0171508789062	320.1507263183594	811.2777099609375	-976.979248046875	305.409423828125	978.1088256835938	-939.8963623046875	330.5821228027344	637.902099609375	-942.7628784179688	292.5555419921875	696.2527465820312	-966.6541137695312	353.2635803222656	730.23779296875	-975.8561401367188	166.7204742431641	1555.119506835938	-769.2232666015625	100.7009506225586	1549.883544921875	-580.6622924804688	54.57481002807617	1566.681030273438	-694.7349243164062	241.681884765625	1532.291137695312	-628.0556030273438	211.4790344238281	911.1205444335938	-530.3558959960938	136.8148651123047	921.6865234375	-880.9590454101562	21.47290229797363	940.1061401367188	-797.3148803710938	90.61080932617188	914.0816650390625	-541.7463989257812	182.5102844238281	424.1427917480469	-613.80126953125	180.8527221679688	565.300537109375	-577.0140991210938	430.1410522460938	52.68577575683594	-682.5907592773438	306.1903381347656	220.0091552734375	-641.0899047851562	230.7918853759766	35.60178375244141	-782.4990234375	315.7656555175781	41.20606994628906	-796.0233154296875	305.0263366699219	40.39011383056641	-692.38818359375	478.6995239257812	67.6236572265625	-731.5447998046875	-86.52935028076172	481.3274841308594	-850.766845703125	-5.209978580474854	727.74609375	-867.0908203125	-208.0375366210938	61.3555793762207	-847.9833984375	-140.2042541503906	368.1249694824219	-839.4179077148438	-336.7776489257812	111.3007965087891	-729.0067749023438	-262.92822265625	85.73215484619141	-723.8106689453125	-289.0522766113281	72.07088470458984	-822.187744140625	-129.9163360595703	25.15363502502441	-820.5484008789062	
409	4.08	232.7741851806641	931.8916625976562	-789.3287353515625	263.5084228515625	923.2554321289062	-661.4921875	254.3183898925781	1013.419372558594	-722.3531494140625	23.91624450683594	1168.817504882812	-682.8815307617188	269.2078857421875	1115.968872070312	-710.2377319335938	231.7842102050781	1363.639526367188	-684.6302490234375	79.30416870117188	1286.225219726562	-683.7971801757812	279.7910461425781	1222.88427734375	-750.3804321289062	255.8929138183594	1325.833129882812	-585.8423461914062	174.0230560302734	1343.071899414062	-528.0382690429688	215.790771484375	1224.01513671875	-468.4956665039062	215.9436340332031	1032.723999023438	-449.5873718261719	250.7912445068359	1003.268188476562	-522.9441528320312	15.66081809997559	962.01806640625	-444.2998352050781	52.44915771484375	913.2097778320312	-387.1319580078125	158.9358062744141	971.0198974609375	-425.4059143066406	-128.792724609375	859.6415405273438	-400.1647033691406	-26.09574890136719	874.1864013671875	-375.8958129882812	-64.70665740966797	919.6361694335938	-401.1354675292969	176.4482574462891	1345.66650390625	-837.7761840820312	204.6861114501953	1287.971801757812	-888.6751708984375	284.2727355957031	1040.46630859375	-914.1689453125	263.4267578125	1027.725830078125	-822.5894775390625	241.3811492919922	794.820068359375	-945.8306274414062	305.3775634765625	809.698974609375	-978.1278076171875	291.0553588867188	976.5280151367188	-941.5747680664062	317.3490905761719	636.5704345703125	-943.3278198242188	278.5572814941406	694.6968383789062	-966.634521484375	338.694091796875	728.6719360351562	-977.28271484375	155.9573516845703	1554.431640625	-769.6683959960938	91.7086181640625	1549.161254882812	-580.4808959960938	44.49581909179688	1566.210327148438	-694.1151733398438	232.1080322265625	1531.244018554688	-629.2908325195312	201.3359832763672	909.6339721679688	-531.7633056640625	123.5172805786133	921.7557983398438	-881.7739868164062	9.271307945251465	939.7537841796875	-796.74365234375	80.47773742675781	912.3847045898438	-541.8201293945312	173.3048553466797	422.9423217773438	-614.5621948242188	171.3849487304688	563.9701538085938	-578.3374633789062	429.2015380859375	56.58695983886719	-683.5389404296875	301.5004577636719	221.7768402099609	-641.7009887695312	230.4791259765625	35.43626022338867	-782.42724609375	314.6794128417969	42.40878677368164	-796.1024780273438	304.4934692382812	40.68730163574219	-692.6378784179688	477.4752197265625	72.54400634765625	-732.5367431640625	-99.43949127197266	481.188232421875	-846.9747314453125	-19.03201484680176	727.5606079101562	-865.5079956054688	-212.9562835693359	59.49931716918945	-845.4177856445312	-151.4417419433594	366.908447265625	-835.0808715820312	-341.1675720214844	104.1595230102539	-723.7527465820312	-266.5885620117188	80.51680755615234	-720.0045776367188	-293.5252685546875	68.01059722900391	-818.2801513671875	-133.5141754150391	25.47196197509766	-819.6398315429688	
